# xmcd
# 
# Track frame offsets:
#     150
#     13895
#     27590
#     41045
#     54952
#     63889
#     75870
#     86920
#     99850
#     112362
#     123317
#     138357
#     152490
#     174784
#     191617
#     217652
#     234960
#     251175
# 
# Disc length: 3615
# 
# Revision: 4
# Processed by: cddbd v1.5.2PL0 Copyright (c) Steve Scherf et al.
# Submitted via: BonkEnc v1.0.15
# 
DISCID=e30e1d12
DTITLE=Ella Fitzgerald - Basin Street Blues
DYEAR=1997
DGENRE=Jazz
TTITLE0=Basin Street Blues
TTITLE1=Starlit Hour
TTITLE2=We Can't Go On This Way
TTITLE3=Stairway to the Stars
TTITLE4=Lover Come Back To Me
TTITLE5=Sing Song Swing
TTITLE6=That Old Black Magic
TTITLE7=Little White Lies
TTITLE8=Sugar Blues
TTITLE9=Flying Home
TTITLE10=Don't Worry 'Bout Me
TTITLE11=Chewin' Gum
TTITLE12=Don't Be That Way
TTITLE13=Can't We Be Friends
TTITLE14=Cheek To Cheek
TTITLE15=A Fine Romance
TTITLE16=Moonlight In Vermont
TTITLE17=A Foggy Day In London
EXTD=
EXTT0=
EXTT1=
EXTT2=
EXTT3=
EXTT4=
EXTT5=
EXTT6=
EXTT7=
EXTT8=
EXTT9=
EXTT10=
EXTT11=
EXTT12=
EXTT13=
EXTT14=
EXTT15=
EXTT16=
EXTT17=
PLAYORDER=
